<?xml version="1.0" encoding="utf-8"?>
<!-- Generator: Adobe Illustrator 26.0.3, SVG Export Plug-In . SVG Version: 6.00 Build 0)  -->
<svg version="1.1" id="Ebene_1" xmlns="http://www.w3.org/2000/svg" xmlns:xlink="http://www.w3.org/1999/xlink" x="0px" y="0px"
	 viewBox="0 0 359.8 377.1" style="enable-background:new 0 0 359.8 377.1;" xml:space="preserve">
<style type="text/css">
	.st0{fill:url(#SVGID_1_);}
	.st1{fill:url(#SVGID_00000114756803129462715880000008956167345434900367_);}
	.st2{fill:url(#SVGID_00000160188467735658941660000014166086162436757169_);}
</style>
<g id="SvgjsG1155" transform="matrix(3.182280910719695,0,0,3.182280910719695,0,0.9130023168761364)">
	
		<linearGradient id="SVGID_1_" gradientUnits="userSpaceOnUse" x1="-93.6966" y1="147.1738" x2="-92.6966" y2="147.1738" gradientTransform="matrix(359.83 0 0 -377.1713 33714.8633 55568.6914)">
		<stop  offset="0" style="stop-color:#8F5E25"/>
		<stop  offset="0.5" style="stop-color:#FBF4A1"/>
		<stop  offset="1" style="stop-color:#8F5E25"/>
	</linearGradient>
	<path class="st0" d="M3.2,42C12.6,12.5,44.1-3.7,73.5,5.7c17.3,5.5,30.8,19,36.3,36.3h3.2C103.8,10.7,71-7.1,39.8,2.1
		C20.7,7.8,5.7,22.8,0,42H3.2z M109.7,76.2c-9.4,29.4-40.9,45.7-70.3,36.3c-17.3-5.5-30.8-19-36.3-36.3H0
		c9.3,31.2,42.2,48.9,73.4,39.6c19-5.7,33.9-20.6,39.6-39.6H109.7z"/>
</g>
<g id="SvgjsG1156" transform="matrix(1.3623497652314092,0,0,1.3623497652314092,123.99999870076202,93.55944448417526)">
	
		<linearGradient id="SVGID_00000125581228821916628590000010290445191956664981_" gradientUnits="userSpaceOnUse" x1="-307.5224" y1="274.9488" x2="-306.5224" y2="274.9488" gradientTransform="matrix(73.8851 0 0 -65.9789 22735.1074 18196.1016)">
		<stop  offset="0" style="stop-color:#8F5E25"/>
		<stop  offset="0.5" style="stop-color:#FBF4A1"/>
		<stop  offset="1" style="stop-color:#8F5E25"/>
	</linearGradient>
	<path style="fill:url(#SVGID_00000125581228821916628590000010290445191956664981_);" d="M23.5,31.1l20,37.7l8.4-15.5l4,26.3h2.5
		l-5.2-34l-9.7,17.9L26.4,31.1C26.4,31.1,23.5,31.1,23.5,31.1z M45.6,49.6l-3.2,6l1.5,2.6l4.6-8.6l6.1-11.3l0.2-0.5l2.3-4.2h1.7
		l0.2,1.7L63.9,69l1.2,7.9h-2.3l-5.3-34.2L57,38.6L55,42.3l5.5,36.2h-0.1l0.2,1H68l-7.3-48.4h-5.3L45.6,49.6z M41.4,69.3L21.5,32
		l-0.4-0.7l-7.3,48.2h12.1l2.2-14.3l-1.5-2.7l-0.6-1l-2.3,15.5h-7l5.8-37.9l21.1,39.8l7.5-14.3l-0.6-3.7l-0.1-0.5l-6.9,13.1
		L41.4,69.3z M25,54l13.5,25.5h2.8L23.7,46.3l-4.5,28.9h2.5L25,54z"/>
</g>
<g id="SvgjsG1157" transform="matrix(0.44543902142614983,0,0,0.44543902142614983,55.112320676316806,190.63696680671825)">
	
		<linearGradient id="SVGID_00000146492877935363089490000017171756042012023477_" gradientUnits="userSpaceOnUse" x1="-792.059" y1="613.0844" x2="-791.059" y2="613.0844" gradientTransform="matrix(230.2912 0 0 -15.5942 182425.2344 9654.1865)">
		<stop  offset="0" style="stop-color:#8F5E25"/>
		<stop  offset="0.5" style="stop-color:#FBF4A1"/>
		<stop  offset="1" style="stop-color:#8F5E25"/>
	</linearGradient>
	<path style="fill:url(#SVGID_00000146492877935363089490000017171756042012023477_);" d="M27.7,76.4c-0.5,0-0.9,0-1.4,0
		c-0.7,0-1.5-0.1-1.7,0.8c-0.5,3.9-0.9,8.2-1.3,12.2c-0.8,6.4-1.5,13.1-2.3,19.5c-0.1,0.9-0.2,1.7,0.8,1.9c1.5,0.1,2.6,0.1,3.8,0
		c0.5,0,1,0.1,1.1-0.5c0.1-0.2,0.1-0.5,0.1-0.7c0.1-1.1,1.5-14.3,2-14.3c0.9,0,3.2,10.8,4.3,14.7c0.1,0.6,0.4,0.8,1,0.7
		c1.2-0.1,2.3,0,3.4,0s0.9-0.7,1.2-1.7c0.3-1.1,2.9-13.8,3.6-13.8c0.7,0,2.3,14.8,2.4,15.1c0.3,0.6,1.1,0.4,1.6,0.4
		c0.8,0,1.6,0.1,2.7,0c0.8-0.1,1.6,0.2,1.6-0.8c0-0.2-0.1-0.5-0.1-0.7c-0.2-1.2-0.4-2.5-0.6-3.7c-0.3-2.4-0.8-4.7-1.1-7.1
		c-0.5-3.8-0.9-7.6-1.3-11.3c-0.3-3.2-0.8-6.9-1.1-10.1c-0.1-1.1-1.3-0.7-2-0.7h-3.2c-0.5,0-0.7,1-0.8,1.5
		c-0.3,1.3-3.5,17.9-4.5,17.9c-1.1,0-4.5-15.2-5.1-18.5c-0.1-0.7-0.6-1-1.3-1L27.7,76.4z M63.7,110.5c0.1,0,0.6,0,1,0
		c0.9,0,1.2-3.3,1.3-4c0-0.6,0.2-0.6,0.6-0.7c2.3-0.3,3.5-0.1,5.8,0c0.5,0,0.8,0.2,0.9,0.6l0.3,1.1c0.3,0.8,0.5,1.8,0.8,2.5
		c0.2,0.6,0.2,0.5,0.8,0.5c0.7,0,3.4,0,4.2,0c1.1,0,0.3-2.2,0.2-2.5c-0.4-1.3-0.5-2.6-0.9-3.9c-0.2-0.6-5.4-25.5-5.7-26.9
		c-0.3-0.8,0-0.9-0.8-0.9c-1.6,0-3.2,0.1-4.8,0c-0.6,0-0.6,0.2-0.7,0.9c-0.1,0.6-1.8,8-2.4,11c-0.8,3.8-1.6,7.5-2.5,11.3
		c-0.3,1.3-2.5,11-2.3,11c0.1,0.1,0.4,0,0.6,0C61.2,110.6,62.3,110.6,63.7,110.5z M69.8,100.1h-1c-1.3,0-1.3,0-1-1.3
		c0.2-1,1.5-6.5,1.8-7.8c0-0.1,0.1-0.2,0.2-0.2c0.1,0,0.2,0.1,0.2,0.1c0.2,0.6,0.4,1.9,0.6,2.5c0.4,1.8,0.7,3.2,1.1,5.1
		c0.4,1.7,0.2,1.7-0.6,1.7C70.6,100.1,70.2,100.1,69.8,100.1z M94.5,107.4c0-1.2,0-8.8,0-9.3c0-0.1,0.1-0.4,0.3-0.4
		c0.2,0,0.3,0.1,0.3,0.2c1.8,3.6,3.5,7.2,5.1,10.7c0.2,0.5,0.7,2,0.9,2.1c0.2,0.3,0.5,0.2,0.8,0.2l5.1,0c0.6,0,0.7-0.4,0.6-0.9
		c-0.4-1.4-3-6.3-3.6-7.5c-0.4-0.9-3.2-6.3-3.3-6.7c-0.1-0.2,0.6-0.5,0.7-0.6c2.2-2,4.2-4,4.6-7.1c0.5-3-0.2-6.4-2.2-8.8
		c-1.5-1.8-3.5-2.9-5.8-3c-1.4-0.1-2.8,0-4.2,0c-1.2,0-2.1,0-3.7,0c-0.7,0-1.2,0.4-1.2,1.2v0.6c-0.1,3.5,0,7.1,0,10.6
		c0,5.3-0.1,19.4-0.1,21.5c0,0.6,0.1,0.7,0.6,0.7c0.3,0,0.7,0,1,0c1.3,0,2.1,0,3.4,0C94.9,110.9,94.5,109.2,94.5,107.4z M94.5,89.5
		l0-4.7c0-0.7-0.2-2.1,0.5-2.6c0.9-0.6,2.7,0,3.5,0.6c2.3,1.6,2.1,5.4,0.9,7.6c-0.6,1-1.6,1.6-2.8,1.9c-0.7,0.2-2,0.4-2-0.7
		C94.6,90.9,94.5,89.5,94.5,89.5z M122.8,102.5c0-1.6-0.2-6-0.2-6.9c0-0.1,0.1-0.3,0.1-0.3c0.1,0,0.3,0.1,0.3,0.1
		c1.5,1.9,8.4,15.3,9.2,15.4c0.2,0,0.5,0,0.7,0c1.6-0.1,2.9,0,4.5,0c1.6,0,0.6-1.6,0.3-2c-0.4-0.6-5.9-10.4-6.2-11
		c-0.9-1.6-1.7-3.3-2.6-4.8c-0.1-0.2-0.2-0.5-0.1-0.6c0.1-0.6,0.2-1.1,0.5-1.6c1.1-2.2,2.3-4.4,3.6-6.4c1.5-2.3,2.3-3.8,3.5-5.9
		c0.3-0.5,0.5-1.1,0.6-1.7c0-0.2-0.1-0.5-0.4-0.5c-0.9,0-4.1,0-5.1,0c-0.5,0-0.9,0.1-1.2,0.5c-0.6,1.2-6.8,12.4-7.4,13.4
		c0,0.1-0.2,0.1-0.3,0.1c0,0-0.1-0.1-0.1-0.2c0-2.6,0.4-11,0.3-12.7c0-1-0.2-1.1-1.2-1.2c-1.1,0-2.6,0-3.7,0c-1,0-1.1,0.6-1.2,1.3
		c0,0.1,0,4.5,0,6.4c0,2.8-0.2,20.4,0.1,26c0,0.6,0.1,0.9,0.6,0.9c1.2-0.1,3.1,0,4.3,0c0.9,0,1-0.1,1-1.6c0-2,0.2-3.8,0.2-6.2
		C122.9,102.9,122.8,102.7,122.8,102.5z M171.6,84.8c1,2.9,1.2,5.9,1.2,9c0,2.5-0.5,5-1.1,7.4c-0.8,2.9-2.2,5.5-4.7,7.2
		c-1.8,1.3-3.8,2.2-6,2.4c-0.3,0-0.6,0-0.9,0c-0.3,0-0.6,0-0.9,0c-2.3-0.2-4.2-1.1-6.1-2.4c-2.4-1.7-3.9-4.3-4.7-7.2
		c-0.7-2.4-1.1-4.9-1.1-7.4c0-3,0.2-6.1,1.2-9c1.7-4.9,6.4-8.4,11.5-8.5C165.1,76.4,169.8,79.9,171.6,84.8z M167.1,97.2
		c0.5-2.8,0.3-5.7-0.3-8.5c-0.6-2.5-1.7-5-3.8-6.5c-0.4-0.3-0.8-0.5-1.2-0.6c-0.6-0.3-1.2-0.4-1.8-0.4c-0.6,0-1.2,0.1-1.8,0.4
		c-0.5,0.1-0.8,0.4-1.2,0.6c-2.2,1.5-3.3,4-3.8,6.5c-0.6,2.8-0.7,5.7-0.3,8.5c0.5,2.5,1.4,5.9,3.8,7.2c1,0.6,2.1,0.9,3.3,1
		c1.2,0,2.3-0.4,3.3-1C165.7,103.1,166.6,99.7,167.1,97.2z M182.5,100.8c0.3,0.1,0.9,0,3.3,0c1.6,0,3.4,0,5,0c1.8,0,1.7-0.7,1.7-1.6
		c0-1.3,0.1-2,0.1-3.3c0-0.9-0.2-1.2-1.1-1.2c-4.5,0-5.4,0.2-7.3,0c-0.6,0-1.3,0-1.9,0.1c-0.2,0-0.5,0.1-0.5,0.6
		c0.1,1.5,0.1,2.9,0.1,4.4C181.8,100.3,181.9,100.6,182.5,100.8z M208,76.4c-0.5,0-0.9,0-1.4,0c-0.7,0-1.5-0.1-1.7,0.8
		c-0.5,3.9-0.9,8.2-1.3,12.2c-0.8,6.4-1.5,13.1-2.3,19.5c-0.1,0.9-0.2,1.7,0.8,1.9c1.5,0.1,2.6,0.1,3.8,0c0.5,0,1,0.1,1.1-0.5
		c0.1-0.2,0.1-0.5,0.1-0.7c0.1-1.1,1.5-14.3,2-14.3c0.9,0,3.2,10.8,4.3,14.7c0.1,0.6,0.4,0.8,1,0.7c1.2-0.1,2.3,0,3.4,0
		c1.2,0,0.9-0.7,1.2-1.7c0.3-1.1,2.9-13.8,3.6-13.8c0.7,0,2.3,14.8,2.4,15.1c0.3,0.6,1.1,0.4,1.6,0.4c0.8,0,1.6,0.1,2.7,0
		c0.8-0.1,1.6,0.2,1.6-0.8c0-0.2-0.1-0.5-0.1-0.7c-0.2-1.2-0.4-2.5-0.6-3.7c-0.3-2.4-0.8-4.7-1.1-7.1c-0.5-3.8-0.9-7.6-1.3-11.3
		c-0.3-3.2-0.8-6.9-1.1-10.1c-0.1-1.1-1.3-0.7-2-0.7h-3.2c-0.5,0-0.7,1-0.8,1.5c-0.3,1.3-3.5,17.9-4.5,17.9
		c-1.1,0-4.5-15.2-5.1-18.5c-0.1-0.7-0.6-1-1.3-1L208,76.4z M244,110.5c0.1,0,0.6,0,1,0c0.9,0,1.2-3.3,1.3-4c0-0.6,0.2-0.6,0.6-0.7
		c2.3-0.3,3.5-0.1,5.8,0c0.5,0,0.8,0.2,0.9,0.6l0.3,1.1c0.3,0.8,0.5,1.8,0.8,2.5c0.2,0.6,0.2,0.5,0.8,0.5c0.7,0,3.4,0,4.2,0
		c1.1,0,0.3-2.2,0.2-2.5c-0.4-1.3-0.5-2.6-0.9-3.9c-0.2-0.6-5.4-25.5-5.7-26.9c-0.3-0.8,0-0.9-0.8-0.9c-1.6,0-3.2,0.1-4.8,0
		c-0.6,0-0.6,0.2-0.7,0.9c-0.1,0.6-1.8,8-2.4,11c-0.8,3.8-1.6,7.5-2.5,11.3c-0.3,1.3-2.5,11-2.3,11c0.1,0.1,0.4,0,0.6,0
		C241.5,110.6,242.6,110.6,244,110.5L244,110.5z M250.1,100.1h-1c-1.3,0-1.3,0-1-1.3c0.2-1,1.5-6.5,1.8-7.8c0-0.1,0.1-0.2,0.2-0.2
		c0.1,0,0.2,0.1,0.2,0.1c0.2,0.6,0.4,1.9,0.6,2.5c0.4,1.8,0.7,3.2,1.1,5.1c0.4,1.7,0.2,1.7-0.6,1.7
		C250.9,100.1,250.5,100.1,250.1,100.1z M274.8,107.4c0-1.2,0-8.8,0-9.3c0-0.1,0.1-0.4,0.3-0.4s0.3,0.1,0.3,0.2
		c1.8,3.6,3.5,7.2,5.1,10.7c0.2,0.5,0.7,2,0.9,2.1c0.2,0.3,0.5,0.2,0.8,0.2l5.1,0c0.6,0,0.7-0.4,0.6-0.9c-0.4-1.4-3-6.3-3.6-7.5
		c-0.4-0.9-3.2-6.3-3.3-6.7c-0.1-0.2,0.6-0.5,0.7-0.6c2.2-2,4.2-4,4.6-7.1c0.5-3-0.2-6.4-2.2-8.8c-1.5-1.8-3.5-2.9-5.8-3
		c-1.4-0.1-2.8,0-4.2,0c-1.2,0-2.1,0-3.7,0c-0.7,0-1.2,0.4-1.2,1.2v0.6c-0.1,3.5,0,7.1,0,10.6c0,5.3-0.1,19.4-0.1,21.5
		c0,0.6,0.1,0.7,0.6,0.7c0.3,0,0.7,0,1,0c1.3,0,2.1,0,3.4,0C275.2,110.9,274.8,109.2,274.8,107.4z M274.8,89.5l0-4.7
		c0-0.7-0.2-2.1,0.5-2.6c0.9-0.6,2.7,0,3.5,0.6c2.3,1.6,2.1,5.4,0.9,7.6c-0.6,1-1.6,1.6-2.8,1.9c-0.7,0.2-2,0.4-2-0.7
		C274.9,90.9,274.8,89.5,274.8,89.5z M303.2,99c-0.1-5.3-0.1-10.8,0-16c0-1.6-0.1-3.4-0.1-5c0-1.8-0.7-1.7-1.6-1.7
		c-1.3,0-1.9,0-3.3,0c-0.9,0-1.2,0.2-1.2,1.1c0,4.5-0.1,17.3-0.1,19.1s0.2,10.2,0.1,12.1c0,0.6,0,1.3,0,1.9c0,0.2,0.2,0.5,0.6,0.5
		c1.5-0.1,2.9-0.1,4.5-0.1c0.6,0,1-0.2,1.2-0.8C303.4,109.6,303.2,101.2,303.2,99z M336.5,84.8c1,2.9,1.2,5.9,1.2,9
		c0,2.5-0.5,5-1.1,7.4c-0.8,2.9-2.2,5.5-4.7,7.2c-1.8,1.3-3.8,2.2-6,2.4c-0.3,0-0.6,0-0.9,0c-0.3,0-0.6,0-0.9,0
		c-2.3-0.2-4.2-1.1-6.1-2.4c-2.4-1.7-3.9-4.3-4.7-7.2c-0.7-2.4-1.1-4.9-1.1-7.4c0-3,0.2-6.1,1.2-9c1.7-4.9,6.4-8.4,11.5-8.5
		C330,76.4,334.7,79.9,336.5,84.8L336.5,84.8z M332,97.2c0.5-2.8,0.3-5.7-0.3-8.5c-0.6-2.5-1.7-5-3.8-6.5c-0.4-0.3-0.8-0.5-1.2-0.6
		c-0.6-0.3-1.2-0.4-1.8-0.4c-0.6,0-1.2,0.1-1.8,0.4c-0.5,0.1-0.8,0.4-1.2,0.6c-2.2,1.5-3.3,4-3.8,6.5c-0.6,2.8-0.7,5.7-0.3,8.5
		c0.5,2.5,1.4,5.9,3.8,7.2c1,0.6,2.1,0.9,3.3,1c1.2,0,2.3-0.4,3.3-1C330.6,103.1,331.5,99.7,332,97.2z M371.7,76.1
		c-0.9,0-1.8,0.2-2.6,0.5c-1.9,0.6-3.6,1.9-4.7,3.6c-1,1.5-1.4,3.3-1.6,5.1c-0.1,1.4,0,2.8,0.7,4.1c0.7,1.3,1.9,2.5,2.9,3.6
		c0.9,1,1.8,1.9,2.9,2.8c0.9,0.9,2,1.6,2.9,2.5c1.3,1.3,1.8,4.4,0.9,6c-1.2,1.8-3.9,2.1-5.7,1.5c-0.9-0.3-1.8-1-2.5-1.6
		c-0.5-0.3-1-0.5-1.3,0.1c-0.2,0.3-0.3,0.6-0.4,0.9c-0.3,1.2-0.7,2.2-0.8,3.5c0,1.4,2.7,1.8,3.7,2.1c4.5,1.1,9.9,0.2,12.3-4.2
		c0.5-0.9,0.8-1.9,1-2.9c0-0.4,0.1-0.7,0.1-1.1c0.2-2.9-1-5.4-2.8-7.6c-1.9-2.4-4.4-4.1-6.6-6.1c-1.4-1.3-1.9-3.3-1.5-5.2
		c0.4-2,2.7-2.5,4.4-2c0.5,0.1,0.9,0.4,1.4,0.6c0.3,0.1,0.6,0.3,0.9,0.3c0.6,0,0.7-0.5,0.9-1c0.3-1.2,0.9-2.1,1.1-3.2
		c0.2-1.2-0.8-1.5-1.8-1.8C374.1,76.3,373,76.1,371.7,76.1L371.7,76.1z M394.1,105.9c0,1.4,0,2.9,0.1,4.3c0,0.6,0,0.7,0.7,0.7h4.1
		c0.9,0,0.7-1.5,0.6-2.3l0.1-25.8c0-0.7,0.2-0.9,1.2-0.9h4.1c1,0,0.7-1.7,0.7-2.8c0-1,0.4-2.8-0.7-2.8c-0.8,0-8.3,0-11.4,0
		c-1.5,0-2.8,0-4.3,0c-1.2,0-1.1,0.9-1.1,2.9c0,1.3,0,2.6,1.1,2.6c0.6,0,3.3,0,4,0c0.5,0,0.8,0.1,0.9,0.6c0,0.1,0,0.3,0,0.4
		C394.2,86.3,394,101.7,394.1,105.9L394.1,105.9z M420.4,107.4c0-1.2,0-8.8,0-9.3c0-0.1,0.1-0.4,0.3-0.4s0.3,0.1,0.3,0.2
		c1.8,3.6,3.5,7.2,5.1,10.7c0.2,0.5,0.7,2,0.9,2.1c0.2,0.3,0.5,0.2,0.8,0.2l5.1,0c0.6,0,0.7-0.4,0.6-0.9c-0.4-1.4-3-6.3-3.6-7.5
		c-0.4-0.9-3.2-6.3-3.3-6.7c-0.1-0.2,0.6-0.5,0.7-0.6c2.2-2,4.2-4,4.6-7.1c0.5-3-0.2-6.4-2.2-8.8c-1.5-1.8-3.5-2.9-5.8-3
		c-1.4-0.1-2.8,0-4.2,0c-1.2,0-2.1,0-3.7,0c-0.7,0-1.2,0.4-1.2,1.2v0.6c-0.1,3.5,0,7.1,0,10.6c0,5.3-0.1,19.4-0.1,21.5
		c0,0.6,0.1,0.7,0.6,0.7c0.3,0,0.7,0,1,0c1.3,0,2.1,0,3.4,0C420.8,110.9,420.4,109.2,420.4,107.4L420.4,107.4z M420.4,89.5l0-4.7
		c0-0.7-0.2-2.1,0.5-2.6c0.9-0.6,2.7,0,3.5,0.6c2.3,1.6,2.1,5.4,0.9,7.6c-0.6,1-1.6,1.6-2.8,1.9c-0.7,0.2-2,0.4-2-0.7
		C420.4,90.9,420.4,89.5,420.4,89.5z M446.7,110.5c0.1,0,0.6,0,1,0c0.9,0,1.2-3.3,1.3-4c0-0.6,0.2-0.6,0.6-0.7
		c2.3-0.3,3.5-0.1,5.8,0c0.5,0,0.8,0.2,0.9,0.6l0.3,1.1c0.3,0.8,0.5,1.8,0.8,2.5c0.2,0.6,0.2,0.5,0.8,0.5c0.7,0,3.4,0,4.2,0
		c1.1,0,0.3-2.2,0.2-2.5c-0.4-1.3-0.5-2.6-0.9-3.9c-0.2-0.6-5.4-25.5-5.7-26.9c-0.3-0.8,0-0.9-0.8-0.9c-1.6,0-3.2,0.1-4.8,0
		c-0.6,0-0.6,0.2-0.7,0.9c-0.1,0.6-1.8,8-2.4,11c-0.8,3.8-1.6,7.5-2.5,11.3c-0.3,1.3-2.5,11-2.3,11c0.1,0.1,0.4,0,0.6,0
		C444.2,110.6,445.2,110.6,446.7,110.5z M452.7,100.1h-1c-1.3,0-1.3,0-1-1.3c0.2-1,1.5-6.5,1.8-7.8c0-0.1,0.1-0.2,0.2-0.2
		c0.1,0,0.2,0.1,0.2,0.1c0.2,0.6,0.4,1.9,0.6,2.5c0.4,1.8,0.7,3.2,1.1,5.1c0.4,1.7,0.2,1.7-0.6,1.7
		C453.5,100.1,453.1,100.1,452.7,100.1L452.7,100.1z M481.2,76.1c-0.9,0-1.8,0.2-2.6,0.5c-1.9,0.6-3.6,1.9-4.7,3.6
		c-1,1.5-1.4,3.3-1.6,5.1c-0.1,1.4,0,2.8,0.7,4.1c0.7,1.3,1.9,2.5,2.9,3.6c0.9,1,1.8,1.9,2.9,2.8c0.9,0.9,2,1.6,2.9,2.5
		c1.3,1.3,1.8,4.4,0.9,6c-1.2,1.8-3.9,2.1-5.7,1.5c-0.9-0.3-1.8-1-2.5-1.6c-0.5-0.3-1-0.5-1.3,0.1c-0.2,0.3-0.3,0.6-0.4,0.9
		c-0.3,1.2-0.7,2.2-0.8,3.5c0,1.4,2.7,1.8,3.7,2.1c4.5,1.1,9.9,0.2,12.3-4.2c0.5-0.9,0.8-1.9,1-2.9c0-0.4,0.1-0.7,0.1-1.1
		c0.2-2.9-1-5.4-2.8-7.6c-1.9-2.4-4.4-4.1-6.6-6.1c-1.4-1.3-1.9-3.3-1.5-5.2c0.4-2,2.7-2.5,4.4-2c0.5,0.1,0.9,0.4,1.4,0.6
		c0.3,0.1,0.6,0.3,0.9,0.3c0.6,0,0.7-0.5,0.9-1c0.3-1.2,0.9-2.1,1.1-3.2c0.2-1.2-0.8-1.5-1.8-1.8C483.6,76.3,482.4,76.1,481.2,76.1
		L481.2,76.1z M507.1,76.1c-0.9,0-1.8,0.2-2.6,0.5c-1.9,0.6-3.6,1.9-4.7,3.6c-1,1.5-1.4,3.3-1.6,5.1c-0.1,1.4,0,2.8,0.7,4.1
		c0.7,1.3,1.9,2.5,2.9,3.6c0.9,1,1.8,1.9,2.9,2.8c0.9,0.9,2,1.6,2.9,2.5c1.3,1.3,1.8,4.4,0.9,6c-1.2,1.8-3.9,2.1-5.7,1.5
		c-0.9-0.3-1.8-1-2.5-1.6c-0.5-0.3-1-0.5-1.3,0.1c-0.2,0.3-0.3,0.6-0.4,0.9c-0.3,1.2-0.7,2.2-0.8,3.5c0,1.4,2.7,1.8,3.7,2.1
		c4.5,1.1,9.9,0.2,12.3-4.2c0.5-0.9,0.8-1.9,1-2.9c0-0.4,0.1-0.7,0.1-1.1c0.2-2.9-1-5.4-2.8-7.6c-1.9-2.4-4.4-4.1-6.6-6.1
		c-1.4-1.3-1.9-3.3-1.5-5.2c0.4-2,2.7-2.5,4.4-2c0.5,0.1,0.9,0.4,1.4,0.6c0.3,0.1,0.6,0.3,0.9,0.3c0.6,0,0.7-0.5,0.9-1
		c0.3-1.2,0.9-2.1,1.1-3.2c0.2-1.2-0.8-1.5-1.8-1.8C509.5,76.3,508.3,76.1,507.1,76.1L507.1,76.1z M523.6,80.8
		c0,2.9,0.2,23.7,0.2,25.2c0,1.4,0,2.9,0,4.3c0,0.2,0.1,0.5,0.4,0.5c3.2,0.1,6.4-0.1,9.6-0.1c1.1,0,2.1,0,3.1,0c1,0,1.1-0.5,1.1-1.3
		c0-1.3,0-2.4,0-3.7c0-0.6-0.4-0.9-1-0.9c-1.9,0-3.8,0-5.7,0c-0.3,0-0.6,0-1,0c-0.6,0-0.7-0.2-0.7-0.8v-0.7
		c-0.1-3.8,0.1-7.8,0.1-11.6c0-3.2,0-6.1,0-9c0-1.2,0-2.5,0-3.7c0-0.7,0-1.5-0.2-2.3c-0.1-0.3-0.2-0.6-0.6-0.6h-4.3
		c-0.7,0-1,0.5-1,1.2L523.6,80.8L523.6,80.8z"/>
</g>
</svg>
